
<svg width="44" height="44" viewBox="0 0 44 44" fill="none" xmlns="http://www.w3.org/2000/svg">
    <path d="M17.7417 2.37189C14.2784 2.65548 12.4651 3.6008 11.3737 5.69767C10.6948 6.99533 10.4198 8.67111 10.4026 11.5758C10.394 13.2086 10.4026 13.3203 10.5745 13.5524C11.1932 14.3945 12.2503 14.3945 12.8776 13.5524C13.0409 13.3375 13.0581 13.1399 13.1182 11.4899C13.2901 6.67736 13.8831 5.70627 16.8909 5.22502C17.9221 5.06173 29.3174 5.06173 30.3745 5.22502C32.8409 5.60314 33.6229 6.38517 34.001 8.85158C34.1643 9.9172 34.1643 34.0828 34.001 35.1485C33.6229 37.6149 32.8409 38.3969 30.3745 38.775C29.3174 38.9383 17.9221 38.9383 16.8909 38.775C13.8831 38.2938 13.2901 37.3227 13.1182 32.5102C13.0581 30.8602 13.0409 30.6625 12.8776 30.4477C12.2503 29.6055 11.1932 29.6055 10.5745 30.4477C10.4026 30.6797 10.394 30.7914 10.4026 32.4242C10.4112 33.3781 10.4628 34.5813 10.5143 35.0883C10.9096 38.732 12.4823 40.6485 15.6362 41.3274C17.0628 41.6367 18.5667 41.6969 24.4878 41.6539C29.1714 41.6281 30.2112 41.6024 30.9245 41.4821C32.8581 41.1555 33.8807 40.6828 34.9034 39.6602C35.9604 38.586 36.4674 37.4086 36.751 35.3547C36.9143 34.1086 36.9143 9.89142 36.751 8.64533C36.4674 6.59142 35.9604 5.41408 34.9034 4.33986C33.8807 3.3172 32.8581 2.84455 30.9245 2.51798C30.194 2.39767 29.2229 2.37189 24.101 2.3633C20.8182 2.3547 17.9565 2.3547 17.7417 2.37189Z" fill="white"/>
    <path d="M22.4296 15.2196C21.6819 15.5203 21.3296 16.5 21.7335 17.1617C21.828 17.3078 22.739 18.15 23.7616 19.0266L25.6179 20.625L14.403 20.6422L3.18818 20.668L2.94756 20.8485C2.10537 21.4758 2.10537 22.5242 2.94756 23.1516C3.18818 23.3321 3.19678 23.3321 14.3687 23.375L25.5577 23.418L23.7616 24.9649C22.7733 25.8156 21.871 26.6406 21.7679 26.8039C21.5015 27.1992 21.5015 27.8008 21.7679 28.1875C22.1976 28.8321 22.8163 29.0211 23.4694 28.7203C23.9249 28.5055 30.2069 23.1172 30.4819 22.6961C30.7483 22.3008 30.7483 21.6992 30.4819 21.3039C30.2499 20.9516 23.9765 15.5289 23.5296 15.2969C23.1858 15.1078 22.7733 15.0821 22.4296 15.2196Z" fill="white"/>
</svg>
