
<svg width="79" height="79" viewBox="0 0 79 79" fill="none" xmlns="http://www.w3.org/2000/svg">
    <path d="M34.56 0.56589C27.76 1.49235 21.16 4.35231 15.5 8.80336C13.46 10.3945 10.26 13.7378 8.62003 15.9532C4.18003 21.9954 1.64003 28.8633 1.00003 36.6778C0.780028 39.3162 0.820028 40.3031 1.22003 44.15C1.52003 46.8085 2.56003 51.2999 3.06003 51.9444C3.20003 52.1458 5.02003 52.2062 10.94 52.2062C18.4 52.2062 18.62 52.186 18.5 51.8235C18.44 51.602 18.52 51.2999 18.7 51.1186C18.98 50.8568 19.52 50.7963 21.72 50.7963H24.42L23.7 50.172C23.32 49.8296 22.92 49.2657 22.84 48.9031L22.68 48.2788L20.74 48.1781C19.3 48.0975 18.74 47.9968 18.6 47.7753C18.48 47.594 18.4 43.1027 18.4 36.6577C18.4 27.091 18.44 25.8221 18.72 25.5401C19 25.2582 20.12 25.2179 28.06 25.2179C37.84 25.2179 41.4 25.3991 44.36 26.0436C49.68 27.2118 54.28 29.6488 57.36 32.972C59.88 35.691 60.94 38.3495 60.74 41.4511C60.56 44.5931 59.2 46.4863 56.4 47.5134C55.48 47.876 55.28 48.0169 55.14 48.5809C54.92 49.4671 54.44 50.1518 53.82 50.4942C53.36 50.7561 53.66 50.7762 56.72 50.7963C60.28 50.7963 60.7 50.897 60.84 51.7027C60.9 52.1055 61.08 52.1055 68.64 52.1659L76.38 52.2062L76.92 50.454C79.82 40.8469 78.82 30.3537 74.1 21.2301C67.38 8.21929 54.02 0.142939 39.42 0.263782C37.82 0.283923 35.62 0.404766 34.56 0.56589Z" fill="white"/>
    <path d="M20 28.118V29.4473H24.96C27.68 29.4674 32.14 29.5077 34.9 29.5681C40.36 29.689 40.6 29.7494 41.46 30.8974C42.2 31.9044 44.6 36.3756 44.6 36.7583C44.6 37.4028 43.88 37.5035 39.6 37.5035H35.38L35.44 40.5649L35.5 43.6464L47.14 43.7068L58.78 43.7471L59.12 42.5991C59.48 41.3705 59.44 39.8398 59 38.3494L58.74 37.5035H55.6C50.98 37.5035 49.54 37.141 47.78 35.5499C46.74 34.6033 45.2 31.985 45.2 31.1592C45.2 29.9508 45.54 29.7696 47.84 29.6487L49.9 29.548L48.9 29.0848C47.76 28.541 45.2 27.7756 43 27.2923C41.74 27.0103 39.78 26.9499 30.76 26.8693L20 26.8089V28.118Z" fill="white"/>
    <path d="M27 38.8127V46.5668H30.5H34V38.8127V31.0586H30.5H27V38.8127Z" fill="white"/>
    <path d="M20 40.6253V43.7471H22.68H25.36L25.5 42.4782C25.56 41.7934 25.6 40.4037 25.56 39.4169L25.48 37.6042L22.74 37.5438L20 37.4834V40.6253Z" fill="white"/>
    <path d="M20.14 45.2778C20.06 45.3583 20 45.6806 20 46.0028V46.5668H22.72H25.42L25.36 45.9021L25.3 45.2576L22.78 45.1972C21.4 45.1771 20.22 45.2174 20.14 45.2778Z" fill="white"/>
    <path d="M35.48 45.4389C35.42 45.6 35.4 45.9021 35.44 46.1035C35.5 46.4459 36.02 46.4661 45.4 46.4661C55.16 46.4661 55.32 46.4661 56.26 46.023C56.78 45.7813 57.2 45.4792 57.2 45.3785C57.2 45.2174 53.84 45.1569 46.4 45.1569C37.16 45.1569 35.58 45.1972 35.48 45.4389Z" fill="white"/>
    <path d="M28.22 48.9635C28.08 49.4468 27.72 49.9705 27.34 50.2726L26.7 50.7963H29.04H31.36L30.68 50.1115C30.3 49.7288 29.94 49.1447 29.88 48.8024C29.76 48.2586 29.66 48.178 29.1 48.178C28.54 48.178 28.44 48.2586 28.22 48.9635Z" fill="white"/>
    <path d="M35.3201 48.8024C35.2601 49.1447 34.9001 49.7288 34.5201 50.1115L33.8401 50.7963H39.0801C43.7801 50.7761 44.2401 50.756 43.7601 50.4942C43.4401 50.3129 43.0201 49.7691 42.7601 49.185L42.3001 48.178H38.8801H35.4601L35.3201 48.8024Z" fill="white"/>
    <path d="M48.0001 48.8628C47.8801 49.2454 47.4601 49.8497 47.0801 50.192L46.3801 50.7963H48.8001H51.2201L50.5001 50.1719C50.1201 49.8295 49.7201 49.2656 49.6401 48.9031C49.5001 48.3995 49.3601 48.2586 48.8601 48.2183C48.3001 48.1579 48.2201 48.2384 48.0001 48.8628Z" fill="white"/>
    <path d="M19.2001 57.4024C18.3801 57.8455 17.6001 59.215 17.6001 60.2019C17.6001 61.6722 18.5801 62.941 19.9001 63.2029C20.7601 63.364 22.4601 62.6591 22.2801 62.1958C22.1801 61.9139 22.1001 61.9139 21.6001 62.1757C19.5001 63.2633 17.6601 61.1888 18.7201 58.9331C18.9001 58.5705 19.1601 58.1677 19.3201 58.0267C19.7001 57.7246 21.1201 57.7246 21.4801 58.0267C21.7801 58.2886 22.2001 58.1677 22.2001 57.8656C22.2001 57.6038 20.9201 57.0399 20.3601 57.0399C20.1001 57.0399 19.5801 57.201 19.2001 57.4024Z" fill="white"/>
    <path d="M9.7401 57.3621C9.4601 57.6441 9.8601 57.8455 10.7201 57.8455H11.6001V60.4638C11.6001 62.941 11.6201 63.082 12.0001 63.082C12.3801 63.082 12.4001 62.941 12.4001 60.4638V57.8455H13.3001C13.9601 57.8455 14.2001 57.7649 14.2001 57.5434C14.2001 57.3017 13.8201 57.2413 12.0401 57.2413C10.8401 57.2413 9.8001 57.3017 9.7401 57.3621Z" fill="white"/>
    <path d="M15.2799 57.5434C15.3399 57.7247 15.3999 59.0539 15.3999 60.4839C15.3999 62.9612 15.4199 63.082 15.7999 63.082C16.1999 63.082 16.1999 62.9813 16.1599 60.2019C16.0999 57.3621 16.0999 57.342 15.6199 57.2816C15.2399 57.2211 15.1799 57.2816 15.2799 57.5434Z" fill="white"/>
    <path d="M23.68 57.5635C23.74 57.7448 23.8 59.0539 23.8 60.4839C23.8 62.8403 23.84 63.082 24.16 63.082C24.48 63.082 24.5 62.9209 24.44 61.6722C24.4 60.8867 24.44 60.2624 24.52 60.2624C24.62 60.2825 25.18 60.9069 25.76 61.6722C26.44 62.5584 26.96 63.082 27.22 63.082C27.42 63.082 27.6 63.0216 27.6 62.9612C27.6 62.9008 27.1 62.1958 26.5 61.4104C25.56 60.2019 25.44 59.9401 25.66 59.6783C27.64 57.2816 27.66 57.2413 27.02 57.2413C26.82 57.2413 26.48 57.483 26.28 57.7851C25.74 58.631 24.72 59.8595 24.56 59.8595C24.46 59.8595 24.4 59.2755 24.4 58.5504C24.4 57.3621 24.36 57.2413 23.98 57.2413C23.68 57.2413 23.6 57.3218 23.68 57.5635Z" fill="white"/>
    <path d="M28.88 57.6844C28.94 57.9462 29 59.2553 29 60.6047V63.082H30.4C31.48 63.082 31.8 63.0216 31.8 62.8001C31.8 62.5785 31.5 62.4778 30.76 62.4375L29.7 62.3771V61.3701V60.3631L30.56 60.3026C31.12 60.2624 31.4 60.1415 31.4 59.9401C31.4 59.7387 31.14 59.6581 30.48 59.6581H29.58L29.64 58.7921L29.7 57.9462L30.76 57.8858C31.5 57.8455 31.8 57.7448 31.8 57.5232C31.8 57.3017 31.48 57.2413 30.28 57.2413C28.8 57.2413 28.76 57.2614 28.88 57.6844Z" fill="white"/>
    <path d="M32.44 57.483C32.5 57.624 32.94 57.7649 33.46 57.8052L34.4 57.8656V60.4839C34.4 62.8202 34.44 63.082 34.76 63.082C35.06 63.082 35.1 62.8202 35.1 60.5242V57.9462L36.06 57.8858C36.72 57.8455 37 57.7448 37 57.5232C37 57.3017 36.58 57.2413 34.68 57.2413C32.92 57.2413 32.38 57.3017 32.44 57.483Z" fill="white"/>
    <path d="M40.6001 57.3218C40.5401 57.3621 40.5201 58.6914 40.5601 60.2422C40.6201 62.9008 40.6401 63.082 41.0201 63.082C41.3601 63.082 41.4001 62.941 41.4001 61.6722V60.2422L42.9601 60.3026L44.5001 60.3631L44.5601 61.7125C44.6201 62.941 44.6601 63.082 45.0401 63.082C45.4001 63.082 45.4401 63.0015 45.3201 62.4577C45.2601 62.1153 45.2001 60.786 45.2001 59.5172C45.2001 57.4628 45.1601 57.2211 44.8601 57.2816C44.5801 57.3218 44.5401 57.5434 44.5801 58.5101L44.6201 59.6581H43.0201H41.4201L41.3601 58.5101C41.3201 57.6441 41.2201 57.3218 41.0001 57.2816C40.8201 57.2614 40.6401 57.2614 40.6001 57.3218Z" fill="white"/>
    <path d="M47.4001 60.1617V63.1022L48.8401 63.0418C49.7601 63.0015 50.3001 62.9008 50.3601 62.7195C50.4201 62.5382 50.1201 62.4778 49.3201 62.4778H48.2001V61.3902V60.2825L49.0401 60.2221C50.2201 60.1415 50.3001 59.6581 49.1201 59.6581H48.2001V58.7518V57.8455H49.2001C49.9601 57.8455 50.2001 57.7649 50.2001 57.5434C50.2001 57.3017 49.9201 57.2413 48.8001 57.2413H47.4001V60.1617Z" fill="white"/>
    <path d="M51.8402 60.1012L51.9002 62.9813L53.3202 63.0418C54.4602 63.082 54.7802 63.0418 54.8602 62.7799C54.9602 62.5382 54.7802 62.4778 53.8002 62.4778H52.6002V59.8596C52.6002 57.3621 52.5802 57.2413 52.2002 57.2413C51.8002 57.2413 51.8002 57.342 51.8402 60.1012Z" fill="white"/>
    <path d="M56.04 60.1012C56.1 62.6591 56.14 62.9813 56.46 63.0417C56.74 63.1022 56.8 62.941 56.8 62.0146V60.927L57.62 60.786C58.74 60.6047 59.4 59.8998 59.4 58.8726C59.4 57.7246 58.74 57.2413 57.16 57.2413H55.98L56.04 60.1012ZM58.24 58.0872C58.42 58.2282 58.62 58.5504 58.7 58.7921C58.86 59.3762 58.02 60.2623 57.3 60.2623C56.82 60.2623 56.8 60.2221 56.8 59.0539C56.8 57.8656 56.8 57.8455 57.36 57.8455C57.68 57.8455 58.06 57.9663 58.24 58.0872Z" fill="white"/>
    <path d="M60.9599 60.1617L61.0199 63.1022L62.4399 63.0418C63.3599 63.0015 63.8999 62.9008 63.9599 62.7195C64.0199 62.5382 63.7199 62.4778 62.9199 62.4778H61.7999V61.3902V60.2825L62.6399 60.2221C63.8199 60.1415 63.8999 59.6581 62.7199 59.6581H61.7999V58.7518V57.8455H62.7999C63.5599 57.8455 63.7999 57.7649 63.7999 57.5434C63.7999 57.3017 63.4999 57.2413 62.3599 57.2413H60.8999L60.9599 60.1617Z" fill="white"/>
    <path d="M65.4401 60.1012C65.5001 62.6591 65.5401 62.9813 65.8601 63.0418C66.1401 63.1022 66.2001 62.941 66.2001 61.9944C66.2001 61.0076 66.2401 60.8666 66.6001 60.8666C66.8401 60.8666 67.3001 61.2895 67.8201 61.9743C68.3001 62.6188 68.8001 63.082 69.0201 63.082C69.5401 63.082 69.5001 62.9612 68.6201 61.7729L67.8401 60.7256L68.3601 60.2019C69.1001 59.4567 69.0801 58.3692 68.3201 57.7247C67.8801 57.3218 67.5601 57.2413 66.5801 57.2413H65.3801L65.4401 60.1012ZM67.8001 58.2483C68.3001 58.7518 68.3001 59.0741 67.7801 59.7387C67.5001 60.0811 67.1801 60.2624 66.7801 60.2624C66.2001 60.2624 66.2001 60.2624 66.2001 59.0539V57.8455H66.8001C67.1401 57.8455 67.5801 58.0268 67.8001 58.2483Z" fill="white"/>
    <path d="M13.5201 68.1373C14.6201 69.3658 18.2801 72.0244 20.9001 73.4947C33.5601 80.5841 49.3601 79.9195 61.3201 71.8029C62.9601 70.6951 66.1801 68.097 66.2001 67.8553C66.2001 67.7747 54.2601 67.7143 39.6601 67.7143H13.1401L13.5201 68.1373Z" fill="white"/>
</svg>
