<svg width="95" height="86" viewBox="0 0 95 86" fill="none" xmlns="http://www.w3.org/2000/svg">
<path d="M43.56 6.56581C36.76 7.49227 30.16 10.3522 24.5 14.8033C22.46 16.3944 19.26 19.7377 17.62 21.9532C13.18 27.9953 10.64 34.8632 10 42.6778C9.78003 45.3162 9.82003 46.303 10.22 50.1499C10.52 52.8084 11.56 57.2998 12.06 57.9443C12.2 58.1457 14.02 58.2061 19.94 58.2061C27.4 58.2061 27.62 58.186 27.5 57.8234C27.44 57.6019 27.52 57.2998 27.7 57.1185C27.98 56.8567 28.52 56.7963 30.72 56.7963H33.42L32.7 56.1719C32.32 55.8295 31.92 55.2656 31.84 54.903L31.68 54.2787L29.74 54.178C28.3 54.0974 27.74 53.9967 27.6 53.7752C27.48 53.5939 27.4 49.1026 27.4 42.6576C27.4 33.0909 27.44 31.822 27.72 31.54C28 31.2581 29.12 31.2178 37.06 31.2178C46.84 31.2178 50.4 31.3991 53.36 32.0436C58.68 33.2117 63.28 35.6487 66.36 38.9719C68.88 41.6909 69.94 44.3494 69.74 47.4511C69.56 50.593 68.2 52.4862 65.4 53.5134C64.48 53.8759 64.28 54.0169 64.14 54.5808C63.92 55.467 63.44 56.1518 62.82 56.4941C62.36 56.756 62.66 56.7761 65.72 56.7963C69.28 56.7963 69.7 56.897 69.84 57.7026C69.9 58.1054 70.08 58.1054 77.64 58.1658L85.38 58.2061L85.92 56.4539C88.82 46.8468 87.82 36.3536 83.1 27.23C76.38 14.2192 63.02 6.14286 48.42 6.2637C46.82 6.28384 44.62 6.40468 43.56 6.56581Z" fill="#929191" fill-opacity="0.7"/>
<path d="M29 34.118V35.4473H33.96C36.68 35.4674 41.14 35.5077 43.9 35.5681C49.36 35.689 49.6 35.7494 50.46 36.8974C51.2 37.9044 53.6 42.3756 53.6 42.7583C53.6 43.4028 52.88 43.5035 48.6 43.5035H44.38L44.44 46.5649L44.5 49.6464L56.14 49.7068L67.78 49.7471L68.12 48.5991C68.48 47.3705 68.44 45.8398 68 44.3494L67.74 43.5035H64.6C59.98 43.5035 58.54 43.141 56.78 41.5499C55.74 40.6033 54.2 37.985 54.2 37.1592C54.2 35.9508 54.54 35.7696 56.84 35.6487L58.9 35.548L57.9 35.0848C56.76 34.541 54.2 33.7756 52 33.2923C50.74 33.0103 48.78 32.9499 39.76 32.8693L29 32.8089V34.118Z" fill="#929191" fill-opacity="0.7"/>
<path d="M36 44.8126V52.5667H39.5H43V44.8126V37.0585H39.5H36V44.8126Z" fill="#929191" fill-opacity="0.7"/>
<path d="M29 46.6253V49.7471H31.68H34.36L34.5 48.4782C34.56 47.7934 34.6 46.4037 34.56 45.4169L34.48 43.6042L31.74 43.5438L29 43.4834V46.6253Z" fill="#929191" fill-opacity="0.7"/>
<path d="M29.14 51.2777C29.06 51.3583 29 51.6806 29 52.0028V52.5667H31.72H34.42L34.36 51.9021L34.3 51.2576L31.78 51.1972C30.4 51.177 29.22 51.2173 29.14 51.2777Z" fill="#929191" fill-opacity="0.7"/>
<path d="M44.48 51.4389C44.42 51.6 44.4 51.9021 44.44 52.1035C44.5 52.4459 45.02 52.466 54.4 52.466C64.16 52.466 64.32 52.466 65.26 52.023C65.78 51.7813 66.2 51.4792 66.2 51.3785C66.2 51.2173 62.84 51.1569 55.4 51.1569C46.16 51.1569 44.58 51.1972 44.48 51.4389Z" fill="#929191" fill-opacity="0.7"/>
<path d="M37.22 54.9635C37.08 55.4468 36.72 55.9705 36.34 56.2726L35.7 56.7963H38.04H40.36L39.68 56.1115C39.3 55.7288 38.94 55.1447 38.88 54.8023C38.76 54.2586 38.66 54.178 38.1 54.178C37.54 54.178 37.44 54.2586 37.22 54.9635Z" fill="#929191" fill-opacity="0.7"/>
<path d="M44.3201 54.8023C44.2601 55.1447 43.9001 55.7288 43.5201 56.1115L42.8401 56.7963H48.0801C52.7801 56.7761 53.2401 56.756 52.7601 56.4941C52.4401 56.3129 52.0201 55.7691 51.7601 55.185L51.3001 54.178H47.8801H44.4601L44.3201 54.8023Z" fill="#929191" fill-opacity="0.7"/>
<path d="M57.0001 54.8628C56.8801 55.2454 56.4601 55.8497 56.0801 56.192L55.3801 56.7963H57.8001H60.2201L59.5001 56.1719C59.1201 55.8295 58.7201 55.2656 58.6401 54.903C58.5001 54.3995 58.3601 54.2586 57.8601 54.2183C57.3001 54.1578 57.2201 54.2384 57.0001 54.8628Z" fill="#929191" fill-opacity="0.7"/>
<path d="M28.2001 63.4023C27.3801 63.8454 26.6001 65.215 26.6001 66.2019C26.6001 67.6721 27.5801 68.941 28.9001 69.2028C29.7601 69.3639 31.4601 68.659 31.2801 68.1958C31.1801 67.9138 31.1001 67.9138 30.6001 68.1756C28.5001 69.2632 26.6601 67.1888 27.7201 64.933C27.9001 64.5705 28.1601 64.1677 28.3201 64.0267C28.7001 63.7246 30.1201 63.7246 30.4801 64.0267C30.7801 64.2885 31.2001 64.1677 31.2001 63.8656C31.2001 63.6037 29.9201 63.0398 29.3601 63.0398C29.1001 63.0398 28.5801 63.2009 28.2001 63.4023Z" fill="#929191" fill-opacity="0.7"/>
<path d="M18.7401 63.3621C18.4601 63.644 18.8601 63.8454 19.7201 63.8454H20.6001V66.4637C20.6001 68.941 20.6201 69.082 21.0001 69.082C21.3801 69.082 21.4001 68.941 21.4001 66.4637V63.8454H22.3001C22.9601 63.8454 23.2001 63.7649 23.2001 63.5433C23.2001 63.3016 22.8201 63.2412 21.0401 63.2412C19.8401 63.2412 18.8001 63.3016 18.7401 63.3621Z" fill="#929191" fill-opacity="0.7"/>
<path d="M24.2799 63.5433C24.3399 63.7246 24.3999 65.0539 24.3999 66.4838C24.3999 68.9611 24.4199 69.082 24.7999 69.082C25.1999 69.082 25.1999 68.9813 25.1599 66.2019C25.0999 63.3621 25.0999 63.3419 24.6199 63.2815C24.2399 63.2211 24.1799 63.2815 24.2799 63.5433Z" fill="#929191" fill-opacity="0.7"/>
<path d="M32.68 63.5635C32.74 63.7447 32.8 65.0539 32.8 66.4838C32.8 68.8403 32.84 69.082 33.16 69.082C33.48 69.082 33.5 68.9208 33.44 67.6721C33.4 66.8867 33.44 66.2623 33.52 66.2623C33.62 66.2824 34.18 66.9068 34.76 67.6721C35.44 68.5583 35.96 69.082 36.22 69.082C36.42 69.082 36.6 69.0215 36.6 68.9611C36.6 68.9007 36.1 68.1958 35.5 67.4103C34.56 66.2019 34.44 65.94 34.66 65.6782C36.64 63.2815 36.66 63.2412 36.02 63.2412C35.82 63.2412 35.48 63.4829 35.28 63.785C34.74 64.6309 33.72 65.8595 33.56 65.8595C33.46 65.8595 33.4 65.2754 33.4 64.5504C33.4 63.3621 33.36 63.2412 32.98 63.2412C32.68 63.2412 32.6 63.3218 32.68 63.5635Z" fill="#929191" fill-opacity="0.7"/>
<path d="M37.88 63.6843C37.94 63.9461 38 65.2553 38 66.6047V69.082H39.4C40.48 69.082 40.8 69.0215 40.8 68.8C40.8 68.5785 40.5 68.4778 39.76 68.4375L38.7 68.3771V67.37V66.363L39.56 66.3026C40.12 66.2623 40.4 66.1415 40.4 65.94C40.4 65.7386 40.14 65.6581 39.48 65.6581H38.58L38.64 64.792L38.7 63.9461L39.76 63.8857C40.5 63.8454 40.8 63.7447 40.8 63.5232C40.8 63.3016 40.48 63.2412 39.28 63.2412C37.8 63.2412 37.76 63.2614 37.88 63.6843Z" fill="#929191" fill-opacity="0.7"/>
<path d="M41.44 63.4829C41.5 63.6239 41.94 63.7649 42.46 63.8052L43.4 63.8656V66.4838C43.4 68.8201 43.44 69.082 43.76 69.082C44.06 69.082 44.1 68.8201 44.1 66.5241V63.9461L45.06 63.8857C45.72 63.8454 46 63.7447 46 63.5232C46 63.3016 45.58 63.2412 43.68 63.2412C41.92 63.2412 41.38 63.3016 41.44 63.4829Z" fill="#929191" fill-opacity="0.7"/>
<path d="M49.6001 63.3218C49.5401 63.3621 49.5201 64.6913 49.5601 66.2422C49.6201 68.9007 49.6401 69.082 50.0201 69.082C50.3601 69.082 50.4001 68.941 50.4001 67.6721V66.2422L51.9601 66.3026L53.5001 66.363L53.5601 67.7124C53.6201 68.941 53.6601 69.082 54.0401 69.082C54.4001 69.082 54.4401 69.0014 54.3201 68.4576C54.2601 68.1152 54.2001 66.786 54.2001 65.5171C54.2001 63.4628 54.1601 63.2211 53.8601 63.2815C53.5801 63.3218 53.5401 63.5433 53.5801 64.5101L53.6201 65.6581H52.0201H50.4201L50.3601 64.5101C50.3201 63.644 50.2201 63.3218 50.0001 63.2815C49.8201 63.2614 49.6401 63.2614 49.6001 63.3218Z" fill="#929191" fill-opacity="0.7"/>
<path d="M56.4001 66.1616V69.1021L57.8401 69.0417C58.7601 69.0014 59.3001 68.9007 59.3601 68.7194C59.4201 68.5382 59.1201 68.4778 58.3201 68.4778H57.2001V67.3902V66.2824L58.0401 66.222C59.2201 66.1415 59.3001 65.6581 58.1201 65.6581H57.2001V64.7518V63.8454H58.2001C58.9601 63.8454 59.2001 63.7649 59.2001 63.5433C59.2001 63.3016 58.9201 63.2412 57.8001 63.2412H56.4001V66.1616Z" fill="#929191" fill-opacity="0.7"/>
<path d="M60.8402 66.1012L60.9002 68.9813L62.3202 69.0417C63.4602 69.082 63.7802 69.0417 63.8602 68.7799C63.9602 68.5382 63.7802 68.4778 62.8002 68.4778H61.6002V65.8595C61.6002 63.3621 61.5802 63.2412 61.2002 63.2412C60.8002 63.2412 60.8002 63.3419 60.8402 66.1012Z" fill="#929191" fill-opacity="0.7"/>
<path d="M65.04 66.1012C65.1 68.659 65.14 68.9813 65.46 69.0417C65.74 69.1021 65.8 68.941 65.8 68.0145V66.9269L66.62 66.786C67.74 66.6047 68.4 65.8998 68.4 64.8726C68.4 63.7246 67.74 63.2412 66.16 63.2412H64.98L65.04 66.1012ZM67.24 64.0871C67.42 64.2281 67.62 64.5504 67.7 64.792C67.86 65.3761 67.02 66.2623 66.3 66.2623C65.82 66.2623 65.8 66.222 65.8 65.0539C65.8 63.8656 65.8 63.8454 66.36 63.8454C66.68 63.8454 67.06 63.9663 67.24 64.0871Z" fill="#929191" fill-opacity="0.7"/>
<path d="M69.9599 66.1616L70.0199 69.1021L71.4399 69.0417C72.3599 69.0014 72.8999 68.9007 72.9599 68.7194C73.0199 68.5382 72.7199 68.4778 71.9199 68.4778H70.7999V67.3902V66.2824L71.6399 66.222C72.8199 66.1415 72.8999 65.6581 71.7199 65.6581H70.7999V64.7518V63.8454H71.7999C72.5599 63.8454 72.7999 63.7649 72.7999 63.5433C72.7999 63.3016 72.4999 63.2412 71.3599 63.2412H69.8999L69.9599 66.1616Z" fill="#929191" fill-opacity="0.7"/>
<path d="M74.4401 66.1012C74.5001 68.659 74.5401 68.9813 74.8601 69.0417C75.1401 69.1021 75.2001 68.941 75.2001 67.9944C75.2001 67.0075 75.2401 66.8665 75.6001 66.8665C75.8401 66.8665 76.3001 67.2895 76.8201 67.9742C77.3001 68.6187 77.8001 69.082 78.0201 69.082C78.5401 69.082 78.5001 68.9611 77.6201 67.7728L76.8401 66.7255L77.3601 66.2019C78.1001 65.4567 78.0801 64.3691 77.3201 63.7246C76.8801 63.3218 76.5601 63.2412 75.5801 63.2412H74.3801L74.4401 66.1012ZM76.8001 64.2482C77.3001 64.7518 77.3001 65.074 76.7801 65.7386C76.5001 66.081 76.1801 66.2623 75.7801 66.2623C75.2001 66.2623 75.2001 66.2623 75.2001 65.0539V63.8454H75.8001C76.1401 63.8454 76.5801 64.0267 76.8001 64.2482Z" fill="#929191" fill-opacity="0.7"/>
<path d="M22.5201 74.1372C23.6201 75.3658 27.2801 78.0244 29.9001 79.4946C42.5601 86.5841 58.3601 85.9194 70.3201 77.8028C71.9601 76.6951 75.1801 74.097 75.2001 73.8553C75.2001 73.7747 63.2601 73.7143 48.6601 73.7143H22.1401L22.5201 74.1372Z" fill="#929191" fill-opacity="0.7"/>
</svg>
