<svg width="60" height="60" viewBox="0 0 60 60" fill="none" xmlns="http://www.w3.org/2000/svg">
<g clip-path="url(#clip0_29_208)">
<path d="M22.0078 12.668C21.5039 12.9258 21.0938 13.6172 21.0938 14.1797C21.0938 14.7656 21.5039 15.4336 22.0312 15.7031C22.4883 15.9375 22.6875 15.9375 40.5469 15.9375C58.4062 15.9375 58.6055 15.9375 59.0625 15.7031C59.5898 15.4336 60 14.7656 60 14.1797C60 13.5938 59.5898 12.9258 59.0625 12.6562C58.6055 12.4219 58.418 12.4219 40.5234 12.4219C22.7461 12.4336 22.4297 12.4336 22.0078 12.668Z" fill="#929191"/>
<path d="M14.9766 21.457C14.1914 21.8672 13.8516 22.9102 14.25 23.707C14.3555 23.918 15.3633 25.0195 16.5 26.1563L18.5742 28.2422H9.98438C1.60547 28.2422 1.38281 28.2422 0.9375 28.4766C0.410156 28.7461 0 29.4141 0 30C0 30.5859 0.410156 31.2539 0.9375 31.5234C1.38281 31.7578 1.60547 31.7578 9.98438 31.7578H18.5742L16.5 33.832C15.3633 34.9805 14.3555 36.082 14.25 36.293C13.5352 37.7227 15.1289 39.3164 16.5586 38.6016C17.0742 38.3438 24.1055 31.3359 24.3867 30.7969C24.5039 30.5508 24.6094 30.1992 24.6094 30C24.6094 29.8008 24.5039 29.4492 24.3867 29.2031C24.1055 28.6641 17.0742 21.6563 16.5586 21.3984C16.0664 21.1523 15.5039 21.1641 14.9766 21.457Z" fill="#929191"/>
<path d="M29.0391 23.2148C28.5352 23.4727 28.125 24.1641 28.125 24.7266C28.125 25.3125 28.5352 25.9805 29.0625 26.25C29.5195 26.4844 29.7188 26.4844 44.0625 26.4844C58.4062 26.4844 58.6055 26.4844 59.0625 26.25C59.5898 25.9805 60 25.3125 60 24.7266C60 24.1406 59.5898 23.4727 59.0625 23.2031C58.6055 22.9688 58.4062 22.9688 44.0391 22.9688C29.7656 22.9805 29.4609 22.9805 29.0391 23.2148Z" fill="#929191"/>
<path d="M29.0391 33.7617C28.5352 34.0195 28.125 34.7109 28.125 35.2734C28.125 35.8594 28.5352 36.5273 29.0625 36.7969C29.5195 37.0312 29.7188 37.0312 44.0625 37.0312C58.4062 37.0312 58.6055 37.0312 59.0625 36.7969C59.5898 36.5273 60 35.8594 60 35.2734C60 34.6875 59.5898 34.0195 59.0625 33.75C58.6055 33.5156 58.4062 33.5156 44.0391 33.5156C29.7656 33.5273 29.4609 33.5273 29.0391 33.7617Z" fill="#929191"/>
<path d="M22.0078 44.3086C21.5039 44.5664 21.0938 45.2578 21.0938 45.8203C21.0938 46.4062 21.5039 47.0742 22.0312 47.3438C22.4883 47.5781 22.6875 47.5781 40.5469 47.5781C58.4062 47.5781 58.6055 47.5781 59.0625 47.3438C59.5898 47.0742 60 46.4062 60 45.8203C60 45.2344 59.5898 44.5664 59.0625 44.2969C58.6055 44.0625 58.418 44.0625 40.5234 44.0625C22.7461 44.0742 22.4297 44.0742 22.0078 44.3086Z" fill="#929191"/>
</g>
<defs>
<clipPath id="clip0_29_208">
<rect width="60" height="60" fill="white"/>
</clipPath>
</defs>
</svg>
