
<svg width="60" height="36" viewBox="0 0 60 36" fill="none" xmlns="http://www.w3.org/2000/svg">
    <path d="M22.0078 0.667969C21.5039 0.925781 21.0938 1.61719 21.0938 2.17969C21.0938 2.76562 21.5039 3.43359 22.0312 3.70312C22.4883 3.9375 22.6875 3.9375 40.5469 3.9375C58.4062 3.9375 58.6055 3.9375 59.0625 3.70312C59.5898 3.43359 60 2.76562 60 2.17969C60 1.59375 59.5898 0.925781 59.0625 0.65625C58.6055 0.421875 58.418 0.421875 40.5234 0.421875C22.7461 0.433594 22.4297 0.433594 22.0078 0.667969Z" fill="white"/>
    <path d="M14.9766 9.45698C14.1914 9.86713 13.8516 10.9101 14.25 11.707C14.3555 11.9179 15.3633 13.0195 16.5 14.1562L18.5742 16.2421H9.98438C1.60547 16.2421 1.38281 16.2421 0.9375 16.4765C0.410156 16.746 0 17.414 0 17.9999C0 18.5859 0.410156 19.2539 0.9375 19.5234C1.38281 19.7578 1.60547 19.7578 9.98438 19.7578H18.5742L16.5 21.832C15.3633 22.9804 14.3555 24.082 14.25 24.2929C13.5352 25.7226 15.1289 27.3164 16.5586 26.6015C17.0742 26.3437 24.1055 19.3359 24.3867 18.7968C24.5039 18.5507 24.6094 18.1992 24.6094 17.9999C24.6094 17.8007 24.5039 17.4492 24.3867 17.2031C24.1055 16.664 17.0742 9.6562 16.5586 9.39838C16.0664 9.15229 15.5039 9.16401 14.9766 9.45698Z" fill="white"/>
    <path d="M29.0391 11.2148C28.5352 11.4727 28.125 12.1641 28.125 12.7266C28.125 13.3125 28.5352 13.9805 29.0625 14.25C29.5195 14.4844 29.7188 14.4844 44.0625 14.4844C58.4062 14.4844 58.6055 14.4844 59.0625 14.25C59.5898 13.9805 60 13.3125 60 12.7266C60 12.1406 59.5898 11.4727 59.0625 11.2031C58.6055 10.9688 58.4062 10.9688 44.0391 10.9688C29.7656 10.9805 29.4609 10.9805 29.0391 11.2148Z" fill="white"/>
    <path d="M29.0391 21.7617C28.5352 22.0195 28.125 22.7109 28.125 23.2734C28.125 23.8594 28.5352 24.5273 29.0625 24.7969C29.5195 25.0312 29.7188 25.0312 44.0625 25.0312C58.4062 25.0312 58.6055 25.0312 59.0625 24.7969C59.5898 24.5273 60 23.8594 60 23.2734C60 22.6875 59.5898 22.0195 59.0625 21.75C58.6055 21.5156 58.4062 21.5156 44.0391 21.5156C29.7656 21.5273 29.4609 21.5273 29.0391 21.7617Z" fill="white"/>
    <path d="M22.0078 32.3086C21.5039 32.5664 21.0938 33.2578 21.0938 33.8203C21.0938 34.4062 21.5039 35.0742 22.0312 35.3438C22.4883 35.5781 22.6875 35.5781 40.5469 35.5781C58.4062 35.5781 58.6055 35.5781 59.0625 35.3438C59.5898 35.0742 60 34.4062 60 33.8203C60 33.2344 59.5898 32.5664 59.0625 32.2969C58.6055 32.0625 58.418 32.0625 40.5234 32.0625C22.7461 32.0742 22.4297 32.0742 22.0078 32.3086Z" fill="white"/>
</svg>
