<svg width="55" height="55" viewBox="0 0 55 55" fill="none" xmlns="http://www.w3.org/2000/svg">
<path d="M24.6328 0.0307981C19.1735 0.797004 15.0533 2.43256 11.0214 5.39424C9.34388 6.63196 6.31258 9.71151 5.10595 11.4355C3.85517 13.2036 2.33952 16.1211 1.60377 18.184C-2.61944 30.0749 1.70678 43.2772 12.125 50.2615C20.0123 55.5512 29.7389 56.4648 38.3913 52.7369C41.4962 51.3961 44.5422 49.3332 46.926 46.9462C53.592 40.2566 56.3878 30.679 54.3424 21.4698C53.8421 19.2154 53.2682 17.6388 52.1499 15.3402C49.2216 9.34315 44.3656 4.71644 38.303 2.13786C34.6831 0.590718 32.2257 0.089737 28.0908 0.0160634C26.428 -0.0134061 24.8829 0.00132863 24.6328 0.0307981ZM32.3729 2.41782C37.5526 3.49346 41.9377 5.86575 45.5575 9.54943C47.1762 11.185 47.5588 11.6712 48.7949 13.5278C54.9605 22.8844 54.1806 35.2321 46.8819 43.955C45.793 45.2517 44.3656 46.6515 44.1302 46.6515C44.0713 46.6515 43.983 46.0326 43.9389 45.2811C43.777 42.7615 42.9236 40.2861 41.4373 38.0611C39.5244 35.1879 36.861 33.1692 33.3294 31.8725C33.1086 31.7841 33.2558 31.622 34.1387 30.9885C35.4042 30.0749 36.6844 28.6162 37.4054 27.2311C38.9358 24.2989 39.0977 20.7331 37.8469 17.6977C36.8021 15.1928 34.4183 12.7763 31.9462 11.7154C29.3416 10.5956 25.8836 10.5661 23.2349 11.6418C21.2925 12.4374 19.1882 14.2056 18.011 16.0622C14.9062 20.9246 16.1864 27.6437 20.8657 30.9885C21.7486 31.622 21.8958 31.7841 21.6751 31.8725C20.2771 32.3735 18.9086 33.0661 17.8344 33.7733C13.9791 36.3372 11.3451 40.8018 11.0655 45.2222C11.0214 46.0031 10.9331 46.6515 10.889 46.6515C10.6535 46.6515 9.1673 45.1927 8.13724 43.955C2.36896 37.0739 0.559007 27.9678 3.31072 19.5543C5.12066 14.0288 8.84357 9.18106 13.7142 6.02783C16.4218 4.28913 19.5561 3.02195 22.6463 2.44729C24.9418 2.01999 24.8535 2.03472 28.0172 2.07892C30.2245 2.12313 31.3134 2.1968 32.3729 2.41782ZM30.4746 13.3952C31.9462 13.9256 33.0056 14.6329 34.0945 15.7822C35.7573 17.5357 36.6255 19.6869 36.6255 22.0445C36.6255 24.4904 35.6985 26.7006 33.9033 28.4688C31.5636 30.7969 28.1644 31.681 25.0007 30.7969C22.867 30.1928 20.5862 28.3951 19.512 26.4649C17.9669 23.6653 18.011 20.1584 19.6297 17.3883C20.5714 15.7822 22.4991 14.1467 24.2502 13.4836C25.5451 12.9974 26.1337 12.9237 27.8701 12.9679C29.1356 13.0121 29.7095 13.1005 30.4746 13.3952ZM30.8278 33.4049C35.4336 34.2154 39.3184 37.3539 41.0253 41.6417C41.6581 43.2477 41.9229 44.7654 41.9229 46.7546V48.4933L40.7899 49.1858C32.5936 54.1662 22.4697 54.1662 14.2293 49.2006L13.0815 48.508V46.6662C13.0815 44.5739 13.3758 43.0562 14.0968 41.347C15.8038 37.3244 19.4678 34.3627 23.8235 33.4639C25.0007 33.2281 29.6065 33.1839 30.8278 33.4049Z" fill="#929191"/>
</svg>
